<svg xmlns="http://www.w3.org/2000/svg" width="56" height="56"><path d="M40 4v1.84a1 1 0 0 1-1 1H28.76c3.008 1.567 5.145 4.467 5.858 8.072H39a1 1 0 0 1 1 1v1.84a1 1 0 0 1-1 1h-4.224c-.475 7.837-5.224 12.304-12.032 13.87L36.464 51.4a1 1 0 0 1-.808 1.59h-4.442a2 2 0 0 1-1.628-.838L16.095 33.25H11a1 1 0 0 1-1-1V29a1 1 0 0 1 1-1h4.62c7.6 0 12.2-2.978 12.665-9.248H11a1 1 0 0 1-1-1v-1.84a1 1 0 0 1 1-1h17.127c-1.108-4.78-5.54-6.583-12.507-6.583H11a1 1 0 0 1-1-1V4a1 1 0 0 1 1-1h28a1 1 0 0 1 1 1z" stroke="#fff" stroke-width="1.6" fill="none"/></svg>