<svg xmlns="http://www.w3.org/2000/svg" width="56" height="56"><path d="M43.43 31.777l-9.024-1.555v-2.26l5.09-2.425c.24-.113.4-.354.4-.618V10.534c0-.23-.117-.447-.3-.573s-.438-.147-.65-.054l-1.78.78V5.74c0-.38-.307-.685-.685-.685s-.685.306-.685.685v5.48c0 .02.01.04.012.06l-1.383.604v-8.2c0-.38-.307-.685-.685-.685s-.685.306-.685.685v8.2l-1.383-.604c.002-.02.012-.04.012-.06V5.74c0-.38-.307-.685-.685-.685s-.685.306-.685.685v4.946l-1.78-.78a.68.68 0 0 0-.65.054c-.193.126-.3.342-.3.573v14.384c0 .264.152.505.4.618l5.09 2.425v2.025l-9.476-1.633a.68.68 0 0 0-.558.151l-10.38 8.743H7.685c-.378 0-.685.306-.685.685s.307.685.685.685h5.188c.162 0 .318-.057.442-.16l10.327-8.7 9.395 1.62v3.317L25.95 37.29c-.355.13-.538.523-.407.878s.522.538.88.407l7.366-2.698h6.102v2.364L22.163 49.575h-8.31c-.378 0-.685.306-.685.685s.307.685.685.685h8.51a.69.69 0 0 0 .369-.108l10.305-6.59v8.066c0 .38.307.685.685.685s.685-.306.685-.685V43.41c0-.012-.006-.022-.007-.034l6.543-4.183c.197-.126.316-.344.316-.577v-.685h2.056c.378 0 .685-.306.685-.685v-4.795c0-.333-.24-.618-.57-.675zm-14.505-15.4l4.11 1.798v3.476l-4.11-1.958v-3.315zm9.593 3.315l-4.11 1.958v-3.476l4.11-1.798v3.315zm0 4.795l-4.11 1.958v-3.278l4.11-1.958v3.278zm0-12.904v3.3l-4.11 1.798v-3.3l4.11-1.798zm-9.593 0l4.11 1.798v3.3l-4.11-1.798v-3.3zm0 12.904v-3.278l4.11 1.958v3.278l-4.11-1.958zM42.63 36.562h-1.37v-1.37c0-.38-.307-.685-.685-.685h-6.167v-2.895l8.222 1.417v3.532z" fill="#fff" fill-rule="nonzero"/></svg>